<?xml version="1.0" encoding="utf-8"?>
<svg width="350px" height="114px" viewBox="0 0 350 114" version="1.1" xmlns:xlink="http://www.w3.org/1999/xlink" xmlns="http://www.w3.org/2000/svg">
  <defs>
    <rect width="350" height="114" id="artboard_1" />
    <clipPath id="clip_1">
      <use xlink:href="#artboard_1" clip-rule="evenodd" />
    </clipPath>
  </defs>
  <g id="Logos--Horizontal-Black" clip-path="url(#clip_1)">
    <path d="M7.952 7.954L0 0L0 22.504L7.952 22.504L7.952 7.954Z" transform="translate(67 50)" id="Fill-373" fill="#000000" fill-rule="evenodd" stroke="none" />
    <path d="M28.545 34.089L47.912 34.089L39.994 26.171L39.961 26.133L29.774 26.133C36.432 25.512 41.639 19.914 41.639 13.095C41.639 5.866 35.781 0 28.545 0L28.545 26.171L28.539 26.171L6.783 4.477C5.632 5.074 4.515 5.726 3.433 6.432C2.242 7.206 1.099 8.049 0 8.946L20.596 29.462L20.596 74.51L36.499 90.411L36.499 79.171L28.545 71.217L28.545 34.089Z" transform="translate(15 0)" id="Fill-374" fill="#000000" fill-rule="evenodd" stroke="none" />
    <path d="M0.04 0L0 38.406L7.947 38.406L7.989 7.992L0.04 0Z" transform="translate(51 34)" id="Fill-376" fill="#000000" fill-rule="evenodd" stroke="none" />
    <path d="M19.335 7.948L11.385 0L0 0L7.942 7.948L19.335 7.948Z" transform="translate(59 42)" id="Fill-377" fill="#000000" fill-rule="evenodd" stroke="none" />
    <path d="M27.252 52.475L27.252 52.002L27.252 52.001L27.252 18.264L8.986 0C7.274 2.089 5.768 4.355 4.507 6.769L19.3 21.561L19.3 32.802L19.3 32.807L1.35 14.851C0.499 18.014 0.035 21.33 0 24.75C0 24.75 26.361 51.551 27.252 52.475" transform="translate(0 15)" id="Fill-378" fill="#000000" fill-rule="evenodd" stroke="none" />
    <path d="M0 0L0 11.243L50.97 62.209L50.97 50.967L0 0Z" transform="translate(1 51)" id="Fill-380" fill="#000000" fill-rule="evenodd" stroke="none" />
    <path d="M15.903 0L7.949 0L7.949 10.05L0 10.05C0 17.284 5.862 23.15 13.095 23.15C20.325 23.15 26.191 17.284 26.191 10.05L15.903 0Z" transform="translate(75 63)" id="Fill-381" fill="#000000" fill-rule="evenodd" stroke="none" />
    <path d="M43.126 46.417L37.161 57.761L0 57.761L24.162 11.345L2.772 11.345L8.736 0L45.897 0L21.737 46.417L43.126 46.417Z" transform="translate(113 26)" id="Fill-383" fill="#000000" fill-rule="evenodd" stroke="none" />
    <path d="M14.029 23.122L33.081 23.122L33.081 34.466L14.029 34.466L14.029 46.417L33.081 46.417L33.081 57.761L0 57.761L0 0L33.081 0L33.081 11.344L14.029 11.344L14.029 23.122Z" transform="translate(164 26)" id="Fill-384" fill="#000000" fill-rule="evenodd" stroke="none" />
    <path d="M19.744 0C27.104 0 31.348 0.78 34.466 2.771C38.45 5.196 40.874 10.132 40.874 15.674C40.874 19.744 39.575 23.122 36.978 25.72C35.331 27.452 34.032 28.232 30.915 29.097C34.466 29.877 36.025 30.656 37.843 32.387C40.441 34.813 41.74 38.19 41.74 42.434C41.74 47.803 39.575 52.565 35.852 55.077C32.994 56.982 29.529 57.761 23.641 57.761L0 57.761L0 0L19.744 0ZM14.029 23.901L17.492 23.901C23.901 23.901 26.585 21.909 26.585 17.147C26.585 12.47 23.901 10.479 17.319 10.479L14.029 10.479L14.029 23.901ZM14.029 47.715L19.138 47.715C25.027 47.715 27.538 45.724 27.538 41.048C27.538 38.277 26.499 36.285 24.42 35.159C22.861 34.293 21.476 34.12 17.232 34.12L14.029 34.12L14.029 47.715Z" transform="translate(203.1403 26.4589)" id="Fill-385" fill="#000000" fill-rule="evenodd" stroke="none" />
    <path d="M14.029 57.761L0 57.761L0 0L18.706 0C26.326 0 31.868 1.385 35.679 4.329C39.663 7.448 41.913 12.643 41.913 18.965C41.913 27.797 38.191 33.6 30.742 36.544L43.472 57.761L26.672 57.761L14.029 35.419L14.029 57.761ZM18.532 27.538C24.248 27.538 27.712 24.594 27.712 19.57C27.712 14.808 24.335 11.517 19.398 11.517L14.029 11.517L14.029 27.538L18.532 27.538Z" transform="translate(250.3263 26.4593)" id="Fill-387" fill="#000000" fill-rule="evenodd" stroke="none" />
    <path d="M40.632 57.761L55.854 57.761L36.889 0L19.048 0L0 57.761L14.792 57.761L18.355 46.401L37.073 46.401L40.632 57.761ZM21.919 35.04L27.721 16.545L33.515 35.04L21.919 35.04Z" transform="translate(294 26)" id="Fill-390" fill="#000000" fill-rule="evenodd" stroke="none" />
  </g>
</svg>