<?xml version="1.0" encoding="utf-8"?>
<svg width="350px" height="114px" viewBox="0 0 350 114" version="1.1" xmlns:xlink="http://www.w3.org/1999/xlink" xmlns="http://www.w3.org/2000/svg">
  <defs>
    <rect width="350" height="114" id="artboard_1" />
    <clipPath id="clip_1">
      <use xlink:href="#artboard_1" clip-rule="evenodd" />
    </clipPath>
  </defs>
  <g id="Logos--Horizontal-white" clip-path="url(#clip_1)">
    <path d="M334.632 83.761L349.854 83.761L330.889 26L313.048 26L294 83.761L308.792 83.761L312.355 72.401L331.073 72.401L334.632 83.761ZM315.919 61.04L321.721 42.545L327.515 61.04L315.919 61.04ZM74.952 57.954L67 50L67 72.504L74.952 72.504L74.952 57.954ZM43.545 34.089L62.912 34.089L54.994 26.171L54.961 26.133L44.774 26.133C51.432 25.512 56.639 19.914 56.639 13.095C56.639 5.866 50.781 0 43.545 0L43.545 26.171L43.539 26.171L21.783 4.477C20.632 5.074 19.515 5.726 18.433 6.432C17.242 7.206 16.099 8.049 15 8.946L35.596 29.462L35.596 74.51L51.499 90.411L51.499 79.171L43.545 71.217L43.545 34.089ZM51.04 34L51 72.406L58.947 72.406L58.989 41.992L51.04 34ZM78.335 49.948L70.385 42L59 42L66.942 49.948L78.335 49.948ZM27.252 67.475L27.252 67.002L27.252 67.001L27.252 33.264L8.986 15C7.274 17.089 5.768 19.355 4.507 21.769L19.3 36.561L19.3 47.802L19.3 47.807L1.35 29.851C0.499 33.014 0.035 36.33 0 39.75C0 39.75 26.361 66.551 27.252 67.475M1 51L1 62.243L51.97 113.209L51.97 101.967L1 51ZM90.903 63L82.949 63L82.949 73.05L75 73.05C75 80.284 80.862 86.15 88.095 86.15C95.325 86.15 101.191 80.284 101.191 73.05L90.903 63ZM156.126 72.417L150.161 83.761L113 83.761L137.162 37.345L115.772 37.345L121.736 26L158.897 26L134.737 72.417L156.126 72.417ZM178.029 49.122L197.081 49.122L197.081 60.466L178.029 60.466L178.029 72.417L197.081 72.417L197.081 83.761L164 83.761L164 26L197.081 26L197.081 37.344L178.029 37.344L178.029 49.122ZM264.355 84.2203L250.326 84.2203L250.326 26.4593L269.032 26.4593C276.652 26.4593 282.194 27.8443 286.005 30.7883C289.989 33.9073 292.239 39.1023 292.239 45.4243C292.239 54.2563 288.517 60.0593 281.068 63.0033L293.798 84.2203L276.998 84.2203L264.355 61.8783L264.355 84.2203ZM268.858 53.9973C274.574 53.9973 278.038 51.0533 278.038 46.0293C278.038 41.2673 274.661 37.9763 269.724 37.9763L264.355 37.9763L264.355 53.9973L268.858 53.9973ZM222.884 26.4589C230.244 26.4589 234.488 27.2389 237.606 29.2299C241.59 31.6549 244.014 36.5909 244.014 42.1329C244.014 46.2029 242.715 49.5809 240.118 52.1789C238.471 53.9109 237.172 54.6909 234.055 55.5559C237.606 56.3359 239.165 57.1149 240.983 58.8459C243.581 61.2719 244.88 64.6489 244.88 68.8929C244.88 74.2619 242.715 79.0239 238.992 81.5359C236.134 83.4409 232.669 84.2199 226.781 84.2199L203.14 84.2199L203.14 26.4589L222.884 26.4589ZM217.169 50.3599L220.632 50.3599C227.041 50.3599 229.725 48.3679 229.725 43.6059C229.725 38.9289 227.041 36.9379 220.459 36.9379L217.169 36.9379L217.169 50.3599ZM217.169 74.1739L222.278 74.1739C228.167 74.1739 230.678 72.1829 230.678 67.5069C230.678 64.7359 229.639 62.7439 227.56 61.6179C226.001 60.7519 224.616 60.5789 220.372 60.5789L217.169 60.5789L217.169 74.1739Z" transform="matrix(1 0 0 1 -5.684342E-14 2.842171E-14)" id="ZEBRA" fill="#FFFFFF" fill-rule="evenodd" stroke="none" />
  </g>
</svg>